<svg width="32" height="32" fill="none" xmlns="http://www.w3.org/2000/svg"><circle cx="16" cy="16" r="16" fill="#FAFAFC"/><path d="M19.38 12.067c.083 0 .15.033.199.099.066.05.098.115.098.197v1.954a.308.308 0 0 1-.098.223.267.267 0 0 1-.198.074h-2.448c-.083 0-.124.04-.124.123v9.693a.307.307 0 0 1-.099.223.267.267 0 0 1-.198.074h-2.274a.362.362 0 0 1-.223-.074.362.362 0 0 1-.074-.223v-9.693c0-.082-.042-.123-.124-.123h-1.533a.361.361 0 0 1-.223-.075.361.361 0 0 1-.074-.222v-1.954c0-.082.025-.148.075-.197a.308.308 0 0 1 .222-.1h1.533c.082 0 .124-.04.124-.123v-.445c0-1.071.14-1.896.42-2.473.28-.593.742-1.013 1.385-1.26.643-.248 1.55-.363 2.72-.347h.865c.083 0 .149.033.198.099.066.05.099.115.099.198v1.73a.307.307 0 0 1-.099.223.267.267 0 0 1-.198.074h-.643c-.708 0-1.203.14-1.483.42-.264.281-.396.792-.396 1.534v.247c0 .083.041.124.124.124h2.448Z" fill="#42454A"/></svg>