<svg width="32" height="32" fill="none" xmlns="http://www.w3.org/2000/svg"><circle cx="16" cy="16" r="16" fill="#FAFAFC"/><path d="M21.788 8.145H10.135c-1.315 0-2.318 1.002-2.318 2.318v11.653c0 1.315 1.003 2.318 2.318 2.318h11.653c1.316 0 2.318-1.003 2.318-2.318V10.463c0-1.316-1.002-2.318-2.318-2.318Zm-5.826 13.03c2.694 0 4.887-2.13 4.887-4.698 0-.171-.01-.352-.03-.532-.041-.392.248-.784.643-.784.318 0 .577.259.577.578v6.063c0 .314-.25.627-.627.627h-10.9a.628.628 0 0 1-.627-.627v-6.084a.62.62 0 0 1 .62-.62c.411 0 .706.396.661.806-.019.17-.028.34-.028.51-.063 2.632 2.13 4.762 4.824 4.762Zm0-1.879c-1.754 0-3.133-1.378-3.133-3.07 0-1.691 1.379-3.07 3.133-3.07s3.132 1.379 3.132 3.07c0 1.755-1.378 3.07-3.132 3.07Zm6.014-6.703a.695.695 0 0 1-.689.689h-1.754a.695.695 0 0 1-.69-.69v-1.69c0-.377.314-.69.69-.69h1.754c.376 0 .69.313.69.69v1.69Z" fill="#42454A"/></svg>