<svg width="32" height="32" fill="none" xmlns="http://www.w3.org/2000/svg"><circle cx="16" cy="16" r="16" fill="#FAFAFC"/><path d="M24.27 11.158a7.359 7.359 0 0 1-1.912.484c.665-.403 1.247-1.049 1.496-1.775-.665.403-1.33.645-2.161.807-.582-.646-1.496-1.049-2.41-1.049-1.828 0-3.324 1.452-3.324 3.227 0 .242 0 .484.083.726-2.743-.16-5.236-1.452-6.898-3.388-.25.484-.416 1.049-.416 1.614 0 1.13.582 2.097 1.496 2.662-.581 0-1.08-.161-1.496-.403 0 1.533 1.164 2.904 2.66 3.146-.25.081-.582.081-.914.081-.25 0-.416 0-.665-.08.415 1.29 1.662 2.258 3.158 2.258-1.164.888-2.576 1.372-4.155 1.372-.25 0-.5 0-.832-.08 1.496.887 3.242 1.452 5.153 1.452 6.15 0 9.474-4.922 9.474-9.198v-.404c.665-.242 1.247-.806 1.662-1.452Z" fill="#42454A"/></svg>